<svg width="16" height="16" viewBox="0 0 16 16" xmlns="http://www.w3.org/2000/svg">
<path fill-rule="evenodd" clip-rule="evenodd" d="M3.99926 14.0455C3.95597 13.9539 3.9326 13.8472 3.9326 13.7288V5.99544C3.9326 5.91846 3.95482 5.81926 3.99926 5.7235C4.0318 5.65339 4.07624 5.58513 4.1326 5.52878L8.39926 1.26211C8.5326 1.12878 8.7326 1.12878 8.86593 1.26211L9.46593 1.66211C9.79926 1.92878 9.9326 2.32878 9.86593 2.72878L9.06593 5.72878H13.2659C13.9993 5.72878 14.5993 6.32878 14.5993 7.06211V8.46211C14.5993 8.56211 14.5826 8.64544 14.5659 8.72878C14.5493 8.81211 14.5326 8.89544 14.5326 8.99544L12.4659 13.9954C12.3326 14.2621 12.1326 14.3954 11.8659 14.3954H4.59926C4.31769 14.3954 4.10219 14.2633 3.99926 14.0455ZM2.59926 6.39544H2.06567C1.66567 6.39544 1.39844 6.72878 1.39844 7.06211L1.39883 13.7288C1.39883 14.1288 1.66567 14.3954 2.06567 14.3954H2.59926V6.39544ZM11.3644 12.9954L13.157 8.65847C13.1688 8.5745 13.1822 8.50839 13.1904 8.46773C13.1914 8.46285 13.1923 8.45834 13.1931 8.45421C13.1958 8.44094 13.1978 8.43055 13.1993 8.42266V7.12878H7.24367L8.23683 3.40444L5.3326 6.30867V12.9954H11.3644Z" />
</svg>
