<svg width="16" height="16" viewBox="0 0 16 16" fill="none" xmlns="http://www.w3.org/2000/svg">
<path d="M2.06567 6.39544H2.59926V14.3954H2.06567C1.66567 14.3954 1.39883 14.1288 1.39883 13.7288L1.39844 7.06211C1.39844 6.72878 1.66567 6.39544 2.06567 6.39544ZM4.1326 5.52878L8.39926 1.26211C8.5326 1.12878 8.7326 1.12878 8.86593 1.26211L9.46593 1.66211C9.79926 1.92878 9.9326 2.32878 9.86593 2.72878L9.06593 5.72878H13.2659C13.9993 5.72878 14.5993 6.32878 14.5993 7.06211V8.46211C14.5993 8.66211 14.5326 8.79544 14.5326 8.99544L12.4659 13.9954C12.3326 14.2621 12.1326 14.3954 11.8659 14.3954H4.59926C4.19926 14.3954 3.9326 14.1288 3.9326 13.7288V5.99544C3.9326 5.86211 3.99926 5.66211 4.1326 5.52878Z" fill="#171717"/>
</svg>
